<?xml version="1.0" encoding="utf-8"?>
<!-- Generator: Adobe Illustrator 26.2.1, SVG Export Plug-In . SVG Version: 6.00 Build 0)  -->
<svg version="1.1" id="Capa_1" xmlns="http://www.w3.org/2000/svg" xmlns:xlink="http://www.w3.org/1999/xlink" x="0px" y="0px"
	 viewBox="0 0 526.35 376.9" style="enable-background:new 0 0 526.35 376.9;" xml:space="preserve">
<style type="text/css">
	.st0{fill:#FFFFFF;}
</style>
<g>
	<path class="st0" d="M491.88,365.95c-1.27-1.08-1.91-2.63-1.91-4.64c0-2.23,0.92-4.18,2.75-5.86c1.83-1.67,4.55-2.51,8.15-2.51
		h8.03v8.65c-1.05,1.72-2.63,3.15-4.73,4.28c-2.1,1.13-4.37,1.7-6.79,1.7C494.99,367.58,493.15,367.04,491.88,365.95 M502.9,374.82
		c2.44-1.39,4.52-3.16,6.24-5.33c0.13,1.05,0.33,2.1,0.6,3.16c0.27,1.05,0.57,2.14,0.88,3.25h15.73v-7.36l-5.26-0.67
		c-0.06-0.64-0.1-1.29-0.12-1.96c-0.02-0.67-0.02-1.35-0.02-2.06v-22.8c0-5.74-1.89-10.14-5.66-13.22
		c-3.78-3.08-8.95-4.61-15.51-4.61c-3.82,0-7.3,0.49-10.42,1.46c-3.12,0.97-5.96,2.29-8.51,3.94l0.09,12.76h8.84l1.1-6.98
		c1.08-0.8,2.31-1.41,3.68-1.84c1.37-0.43,2.95-0.65,4.73-0.65c3.12,0,5.51,0.81,7.15,2.44c1.64,1.62,2.46,3.81,2.46,6.55v4.35
		h-7.89c-4.91,0-9.08,0.69-12.52,2.08c-3.44,1.39-6.06,3.31-7.84,5.76c-1.79,2.45-2.68,5.31-2.68,8.56c0,4.75,1.47,8.48,4.4,11.19
		c2.93,2.71,7.03,4.06,12.29,4.06C497.71,376.9,500.46,376.21,502.9,374.82 M441.59,365.45c-1.77-1.45-3.08-3.46-3.92-6.02
		c-0.85-2.57-1.27-5.52-1.27-8.87v-1c0-3.31,0.42-6.25,1.27-8.8c0.84-2.55,2.14-4.56,3.9-6.02c1.75-1.47,3.95-2.2,6.6-2.2
		c2.71,0,4.94,0.73,6.69,2.2c1.75,1.47,3.06,3.47,3.92,6.02c0.86,2.55,1.29,5.48,1.29,8.8v1c0,3.35-0.43,6.3-1.29,8.87
		c-0.86,2.57-2.16,4.57-3.9,6.02c-1.74,1.45-3.94,2.17-6.62,2.17S443.36,366.9,441.59,365.45 M461,373.55
		c3.55-2.23,6.29-5.33,8.2-9.3c1.91-3.97,2.87-8.53,2.87-13.7v-1c0-5.16-0.96-9.72-2.87-13.67c-1.91-3.95-4.65-7.05-8.22-9.3
		c-3.57-2.25-7.84-3.37-12.81-3.37c-4.91,0-9.15,1.13-12.72,3.39c-3.57,2.26-6.31,5.37-8.22,9.32c-1.91,3.95-2.87,8.49-2.87,13.62v1
		c0,5.16,0.96,9.73,2.87,13.7c1.91,3.97,4.65,7.07,8.22,9.3c3.57,2.23,7.84,3.35,12.81,3.35C453.2,376.9,457.45,375.78,461,373.55
		 M420.97,375.9v-7.36l-7.22-1.43v-65.78h-19.65v7.41l7.65,1.43v56.93l-7.22,1.43v7.36H420.97z M380.12,374.65
		c2.92-1.5,5.18-3.56,6.79-6.19c1.61-2.63,2.61-5.63,2.99-9.01l-0.14-0.29h-10.42c-0.54,2.65-1.68,4.72-3.42,6.21
		c-1.74,1.5-3.99,2.25-6.76,2.25c-2.29,0-4.33-0.64-6.1-1.91c-1.77-1.27-3.15-3.16-4.14-5.64c-0.99-2.49-1.48-5.54-1.48-9.18v-1.67
		c0-3.38,0.49-6.33,1.46-8.87c0.97-2.53,2.39-4.52,4.25-5.95c1.86-1.43,4.12-2.15,6.76-2.15c1.62,0,3.12,0.28,4.49,0.84
		c1.37,0.56,2.5,1.3,3.39,2.22l1.77,9.13h9.18l-0.05-13.82c-2.1-2.1-4.8-3.86-8.08-5.28c-3.28-1.42-7.14-2.13-11.57-2.13
		c-4.84,0-9.04,1.12-12.6,3.37c-3.55,2.25-6.29,5.33-8.2,9.25c-1.91,3.92-2.87,8.38-2.87,13.39v1.67c0,5.1,0.96,9.6,2.89,13.5
		c1.93,3.9,4.67,6.96,8.22,9.18c3.55,2.22,7.75,3.32,12.6,3.32C373.53,376.9,377.2,376.15,380.12,374.65 M309.84,375.9v-7.36
		l-6.55-1.43v-28.49c1.08-1.85,2.49-3.29,4.23-4.33c1.74-1.04,3.77-1.55,6.09-1.55c3.09,0,5.42,0.82,6.98,2.46
		c1.56,1.64,2.34,4.42,2.34,8.34v23.57l-6.74,1.43v7.36h25.96v-7.36l-7.17-1.43v-23.66c0-6.95-1.48-12.05-4.45-15.32
		c-2.96-3.27-7.11-4.9-12.43-4.9c-3.25,0-6.16,0.74-8.72,2.22c-2.57,1.48-4.71,3.56-6.43,6.24l-0.62-7.51h-18.64v7.41l7.55,1.43
		v34.08l-7.17,1.43v7.36H309.84z M249.33,365.45c-1.77-1.45-3.08-3.46-3.92-6.02s-1.27-5.52-1.27-8.87v-1c0-3.31,0.42-6.25,1.27-8.8
		c0.84-2.55,2.14-4.56,3.9-6.02c1.75-1.47,3.95-2.2,6.6-2.2c2.71,0,4.94,0.73,6.69,2.2c1.75,1.47,3.06,3.47,3.92,6.02
		c0.86,2.55,1.29,5.48,1.29,8.8v1c0,3.35-0.43,6.3-1.29,8.87s-2.16,4.57-3.9,6.02c-1.74,1.45-3.94,2.17-6.62,2.17
		C253.32,367.63,251.1,366.9,249.33,365.45 M268.74,373.55c3.55-2.23,6.29-5.33,8.2-9.3c1.91-3.97,2.87-8.53,2.87-13.7v-1
		c0-5.16-0.96-9.72-2.87-13.67c-1.91-3.95-4.65-7.05-8.22-9.3c-3.57-2.25-7.84-3.37-12.81-3.37c-4.91,0-9.15,1.13-12.72,3.39
		c-3.57,2.26-6.31,5.37-8.22,9.32c-1.91,3.95-2.87,8.49-2.87,13.62v1c0,5.16,0.96,9.73,2.87,13.7c1.91,3.97,4.65,7.07,8.22,9.3
		c3.57,2.23,7.84,3.35,12.81,3.35C260.94,376.9,265.18,375.78,268.74,373.55 M165.14,375.9v-7.36l-8.27-1.43v-17.02l-0.62-29.35
		l0.24-0.05l22.18,53.64h8.75l21.56-53.92l0.24,0.05l-0.1,30.45v16.21l-7.98,1.43v7.36h27.2v-7.36l-7.6-1.43v-51.96l7.6-1.43v-7.41
		h-25.1l-19.79,50.34h-0.29l-20.41-50.34H145.5h-7.55v7.41l7.55,1.43v51.96l-7.55,1.43v7.36H165.14z M71.26,365.95
		c-1.28-1.08-1.91-2.63-1.91-4.64c0-2.23,0.92-4.18,2.75-5.86c1.83-1.67,4.55-2.51,8.15-2.51h8.03v8.65
		c-1.05,1.72-2.63,3.15-4.73,4.28c-2.1,1.13-4.37,1.7-6.79,1.7C74.37,367.58,72.53,367.04,71.26,365.95 M82.28,374.82
		c2.44-1.39,4.52-3.16,6.24-5.33c0.13,1.05,0.33,2.1,0.6,3.16c0.27,1.05,0.56,2.14,0.88,3.25h15.73v-7.36l-5.26-0.67
		c-0.06-0.64-0.1-1.29-0.12-1.96c-0.02-0.67-0.02-1.35-0.02-2.06v-22.8c0-5.74-1.89-10.14-5.67-13.22
		c-3.78-3.08-8.95-4.61-15.51-4.61c-3.82,0-7.3,0.49-10.42,1.46c-3.12,0.97-5.96,2.29-8.51,3.94l0.1,12.76h8.84l1.1-6.98
		c1.08-0.8,2.31-1.41,3.68-1.84c1.37-0.43,2.95-0.65,4.73-0.65c3.12,0,5.5,0.81,7.15,2.44c1.64,1.62,2.46,3.81,2.46,6.55v4.35h-7.89
		c-4.91,0-9.08,0.69-12.52,2.08c-3.44,1.39-6.06,3.31-7.84,5.76c-1.79,2.45-2.68,5.31-2.68,8.56c0,4.75,1.47,8.48,4.4,11.19
		c2.93,2.71,7.03,4.06,12.28,4.06C77.09,376.9,79.84,376.21,82.28,374.82 M51.44,375.9v-19.74h-9.23l-0.81,10.52H19.65v-51.53
		l8.17-1.43v-7.41h-8.17H7.6H0v7.41l7.6,1.43v51.96L0,368.53v7.36H51.44z"/>
	<g>
		<polygon class="st0" points="350.68,0 171.68,0 96.47,14.64 104.64,25.13 418.07,25.13 426.24,14.64 426.24,14.64 		"/>
		<polygon class="st0" points="224.02,222.57 239.71,222.57 239.71,154.54 282.65,154.54 282.65,222.57 298.37,222.57 
			298.37,141.71 224.02,141.71 		"/>
		<polygon class="st0" points="345.61,229.38 176.68,229.38 176.68,240.31 144.97,240.31 144.97,252.12 377.4,252.12 377.4,240.31 
			345.61,240.31 		"/>
		<path class="st0" d="M169.8,222.57h19.75v-80.86h-0.02l-9.7-12.17h-75.4v116.67h33.67V233.5h31.71V222.57z M157.71,208.17h-31.86
			V154.4h31.86V208.17z"/>
		<path class="st0" d="M332.83,141.71h-0.02v80.86h19.75v10.93h31.71v12.72h33.63V129.55h-75.38L332.83,141.71z M364.65,154.4h31.86
			v53.78h-31.86V154.4z"/>
		<rect x="251.72" y="99.24" class="st0" width="18.57" height="23.59"/>
		<rect x="225.58" y="99.24" class="st0" width="18.57" height="23.59"/>
		<rect x="199.43" y="99.24" class="st0" width="18.57" height="23.59"/>
		<rect x="277.87" y="99.24" class="st0" width="18.57" height="23.59"/>
		<rect x="304.02" y="99.24" class="st0" width="18.57" height="23.59"/>
		<rect x="308.67" y="141.71" class="st0" width="13.73" height="80.86"/>
		<rect x="200.01" y="141.71" class="st0" width="13.73" height="80.86"/>
		<path class="st0" d="M104.59,122.83h87.3V99.24h-6.87V92h54.69V50.41h43.25V92h54.2v7.24h-6.95h-0.05v23.59h87.91V31.85H104.59
			V122.83z M358.26,92h6.39V50.39h31.86V92h6.39v19.76h-44.64V92z M301.3,59.58c0-5.38,4.36-9.74,9.74-9.74
			c5.38,0,9.74,4.36,9.74,9.74v16.71H301.3V59.58z M201.93,59.58c0-5.38,4.36-9.74,9.74-9.74c5.38,0,9.74,4.36,9.74,9.74v16.71
			h-19.48V59.58z M119.46,92h6.39V50.39h31.86V92h6.39v19.76h-44.64V92z"/>
	</g>
</g>
</svg>
