<svg xmlns="http://www.w3.org/2000/svg" viewBox="0 0 397.94 186.76"><defs><style>.cls-1{fill:#fff;}</style></defs><g id="Capa_2" data-name="Capa 2"><g id="Capa_1-2" data-name="Capa 1"><path class="cls-1" d="M14.43,149.5H4.76a4.64,4.64,0,1,1,0-9.28H34.17a4.64,4.64,0,1,1,0,9.28H24.51v31.84a5,5,0,0,1-10.08,0Z"></path><path class="cls-1" d="M52.81,180.94V145.25a5,5,0,0,1,5-5H83.21a4.52,4.52,0,0,1,4.51,4.51,4.46,4.46,0,0,1-4.51,4.44H62.81v9.29H80.27A4.52,4.52,0,0,1,84.78,163a4.46,4.46,0,0,1-4.51,4.44H62.81V177H83.54a4.53,4.53,0,0,1,4.51,4.52A4.47,4.47,0,0,1,83.54,186H57.85a5,5,0,0,1-5-5"></path><path class="cls-1" d="M103.28,144.86a5,5,0,1,1,10.07,0v32H132a4.58,4.58,0,1,1,0,9.15H108.32a5,5,0,0,1-5-5Z"></path><path class="cls-1" d="M150.42,180.94V145.25a5,5,0,0,1,5-5h25.36a4.52,4.52,0,0,1,4.52,4.51,4.47,4.47,0,0,1-4.52,4.44H160.42v9.29h17.45a4.52,4.52,0,0,1,4.51,4.51,4.46,4.46,0,0,1-4.51,4.44H160.42V177h20.73a4.52,4.52,0,0,1,4.5,4.52,4.46,4.46,0,0,1-4.5,4.44h-25.7a5,5,0,0,1-5-5"></path><path class="cls-1" d="M198.87,163.23v-.13c0-13,9.8-23.67,23.86-23.67,6.86,0,11.5,1.83,15.28,4.65a5,5,0,0,1,2,4,4.9,4.9,0,0,1-5,4.9,5.33,5.33,0,0,1-3-1,15,15,0,0,0-9.35-3.27c-7.72,0-13.28,6.41-13.28,14.24v.14c0,7.85,5.44,14.38,13.28,14.38a14.74,14.74,0,0,0,9.94-3.59,4.68,4.68,0,0,1,7.71,3.53,4.75,4.75,0,0,1-1.7,3.59c-4.11,3.6-9,5.75-16.28,5.75a23.09,23.09,0,0,1-23.46-23.53"></path><path class="cls-1" d="M290.59,163.23v-.13c0-7.85-5.76-14.38-13.87-14.38S263,155.13,263,163v.14c0,7.85,5.75,14.38,13.87,14.38s13.73-6.4,13.73-14.25m-38.12,0v-.13c0-13,10.27-23.67,24.39-23.67S301.11,150,301.11,163v.14c0,13-10.26,23.66-24.39,23.66s-24.25-10.52-24.25-23.53"></path><path class="cls-1" d="M316.73,145a5,5,0,0,1,5-5h1.11a5.18,5.18,0,0,1,4.58,2.61l12.16,19.81,12.22-19.88a4.93,4.93,0,0,1,4.51-2.54h1.12a5,5,0,0,1,5,5v36.34a5,5,0,1,1-10,0V158.52l-8.83,13.6a4.7,4.7,0,0,1-8.36,0l-8.7-13.4v22.75a4.9,4.9,0,0,1-5,4.9,4.85,4.85,0,0,1-4.91-4.9Z"></path><path class="cls-1" d="M300.87,42.42l35.27,74.9c2,4,5.21,4,7.18,0l31.3-66.76c-23.59-3.31-48.26-6.23-73.75-8.13"></path><path class="cls-1" d="M0,112.1a8.07,8.07,0,0,0,8,8.05H53.24a8.07,8.07,0,0,0,8-8.05V87.34a8.67,8.67,0,0,1,8-8.53s10.49-.64,18.12-2.88a62.51,62.51,0,0,0,19.3-9.1,39.49,39.49,0,0,0,11.85-13.08,31.77,31.77,0,0,0,3.83-12.81A1124,1124,0,0,0,0,54.37Z"></path><path class="cls-1" d="M117.52,24.2a41.67,41.67,0,0,0-10.88-11.42A64.34,64.34,0,0,0,87.22,3.47,89.4,89.4,0,0,0,61.28,0H8A8.06,8.06,0,0,0,0,8V37.1A1144.26,1144.26,0,0,1,117.52,24.2"></path><path class="cls-1" d="M200.61,38.74q-31.2,0-61.49,1.37v3.35a8.07,8.07,0,0,0,8,8H160.9a8.06,8.06,0,0,1,8,8v52.56a8.07,8.07,0,0,0,8.05,8h45a8.06,8.06,0,0,0,8-8V59.55a8.06,8.06,0,0,1,8-8h16a8.07,8.07,0,0,0,8-8V40.11q-30.24-1.35-61.49-1.37"></path><path class="cls-1" d="M200.61,21.72q31.17,0,61.49,1.35v-15a8.07,8.07,0,0,0-8-8H147.16a8.08,8.08,0,0,0-8,8.05v15q30.27-1.34,61.49-1.35"></path><path class="cls-1" d="M290.56,24.65C323.05,26.77,354.38,30,384,34.4L397.23,7.81c2-4-.31-7.8-4.73-7.81H286.56c-4.42,0-6.5,3.65-4.52,7.6Z"></path></g></g></svg>